<svg xmlns="http://www.w3.org/2000/svg" width="1200" height="630" viewBox="0 0 1200 630">
  <defs>
    <radialGradient id="glow" cx="50%" cy="-6%" r="80%">
      <stop offset="0%" stop-color="#2c4170"/>
      <stop offset="42%" stop-color="#16243f"/>
      <stop offset="100%" stop-color="#0c1424"/>
    </radialGradient>
  </defs>
  <rect width="1200" height="630" fill="url(#glow)"/>
  <!-- huisstijlvormen, subtiel -->
  <circle cx="110" cy="505" r="95" fill="#FFCC33" opacity="0.10"/>
  <circle cx="1090" cy="120" r="74" fill="#FF99CC" opacity="0.12"/>
  <circle cx="1060" cy="525" r="104" fill="#479554" opacity="0.10"/>
  <circle cx="95" cy="120" r="58" fill="#FF3333" opacity="0.10"/>
  <!-- Gekkoo logo (wit, vector) -->
  <g transform="translate(350,74) scale(0.50)" fill="#ffffff"><path d="m207.58,225.16c-.71-8.02-1.16-17.39-1.93-25.41-.18-1.78-2.04-14.44-2.04-14.44-4.6.87-9.48.94-14.14,1.32-8.61.7-20.13.65-29.44,1.54,0,0-.01,2.8-.02,3.78,0,0-6.77-.99-7.61-1.15-4.79-.91-9.41-2.18-14.28-2.61-11.35-1.01-23.31-.34-34.38,2.36-7.71,2.18-15.03,4.86-21.02,10.27-5.45,4.97-11.61,11.29-14.91,17.93-3.73,7.54-5.91,16.27-7.67,24.4-2.13,9.75-3.16,19.72-3.08,29.71.09,9.95,1.15,19.89,4.1,29.43,2.2,7.13,20.38,33.93,27.07,38.66,6.14,4.36,13.9,7.31,21.18,9.27,9.68,2.6,20.44,3.67,30.47,2.98,4.82-.35,9.47-2.21,14.08-3.52,1.04-.28,15.43-4.45,15.42-4.04-.11,2.26.06,9.93-.11,12.17-.56,7.46.58,12.46-.18,19.92-.74,7.16-3.57,22.44-7.38,29.05,0,0-14.8,12.77-21.81,13.44-3.72.36-16.04.17-19.44-1.65-3.46-1.84-10.06-8.12-12.24-11.18l-8.09-13.35-3.95-16.98c-.74-5.29-2.85-16.64-2.85-16.64-11.8,1.31-18.75.42-30.49,2.26-1.3.19-5.54.15-5.4,1.77.36,4.15.97,8.28,1.52,12.4.94,7.32,4.77,30.57,6.7,34.41,2.89,7.43,8.69,14.17,13.42,20.47,5.4,7.34,10.5,14.77,18.61,19.43,5.83,3.63,10.73,4.83,17.43,5.51,8.16.84,20.29,4.14,28.27,2.25,16.52-3.86,23.26-8.53,34.19-16.86,5.66-4.35,10.21-10.82,14.65-16.49,4.25-5.41,10.09-17.69,11.27-24.38,1.96-11.34,1.84-14.62,2.61-26.12,1.87-27.99,2.5-56.08,3.12-84.13.53-22.81-.33-44.72-.56-47.46-.48-5.69-.23-5.72-1.08-18.33"/><path d="m346.46,343l3.96-4.73c2.77-3.92,6.1-7.22,9.68-12.81-8.89-7.35-16.61-13.72-25.49-21.06-2.37,1.85-1.05,2.9-9.11,10.31,0,0-4.5,5.22-12.63,6.65-7.19,1.27-23.28-1.47-23.28-1.47,0,0-10.45-4.1-14.85-6.38-5.87-3.05-10.41-8.23-14.31-12.95.3-.6-3.33-18.16-3.77-18.49v-.3c22.04.2,53.94-1.35,64.24-1.87,10.16-.48,17.53-6.43,17.53-6.43.26-.61,7.39-5.46,7.39-5.46l6.89-8.21s4.25-10.95,5.48-16.72c.04-4.03-4.34-28.23-7.31-31.08l-8.34-10.67c-4.07-4.16-16.79-12.2-21.9-14.28l-4.7-2.04s-7.75-.95-10.88-1.08c-8.75-.35-16.24-1-24.45-.22-3.9-.04-11.27,3.62-14.67,5.46-13.99,7.54-22.79,14.78-31.15,26.23,0,0-.55,2.05-.89,2.25,0,0-8.98,21.12-11.08,31.73-.1,23.37-5.67,48.37,8.7,69.32.91,1.32,10.54,14.32,16.01,18.12l6.5,3.72c24.15,14.17,61.17,22.75,86.89,6.24l5.53-3.78Z"/><path d="m454.3,220.27c-.48,0-4.68-4.54-4.68-4.54-15.84-17.93-22.68-26.56-39.8-43.28l-10.38-10.51s-10.44-10.3-17.13-15.94c-.43-.48-5.97-5.31-5.97-5.5l-30.78,40.09c.64.44,1.2.93,1.67,1.53,0,0,15.32,14.23,22.1,20.84,0,0,42.96,48.29,67.59,68.63-17.43,14.95-38.5,28.96-53.5,46.22-16.66,19.17-41.72,50.26-56.83,70.64l37.88,33.02c24.12-32.38,56.67-70.87,87.85-96.78-1.5,33.97-1.39,95.91-1.7,129.89l50.55.46c3.31-99.47.89-214.39,1.75-308.3l-47.29-.43-.02,1.89s-1.11,48.07-1.33,72.1"/><path d="m789.16,268.08c-.17-4.5-1.33-8.92-1.72-13.41-.42-4.86-1.16-9.44-2.98-13.98-2.69-6.67-6.23-13.13-11.32-18.32-2.73-2.8-5.97-4.84-9.29-6.88-4.39-2.73-8.91-5.34-13.55-7.65-4.02-2-8.6-2.98-13-3.76-9.07-1.62-18.2-1.91-27.4-1.8-7.73.09-15.65,1.76-22.88,4.51-9.16,3.47-18.24,8.74-23.84,16.92-5.78,8.49-10.47,17.73-13.67,27.47-3.35,10.17-5.34,20.62-4.76,31.35.55,10.51,3.37,20.84,8.64,30.01,2.09,3.63,4.54,7.03,7.34,10.16,1.23,1.39,2.44,3.21,3.88,4.34,1.65,1.32,3.31,2.63,4.97,3.95,3.11,2.44,6.39,4.46,9.77,6.59,6.11,3.81,13.41,5.18,20.4,6.72,3.68.79,7.16,1.07,10.9,1.1,4.97.05,9.95.17,14.93-.01,1.73-.05,3.27-.57,4.93-1,2.55-.72,5.13-1.41,7.66-2.13,2.49-.69,4.98-1.34,7.47-1.99,2.29-.61,4.76-1,6.89-2.06,2.32-1.15,4.6-2.38,6.8-3.75,4.26-2.57,8.51-5.24,12.32-8.46,3.74-3.16,6.28-6.99,8.73-11.15,2.09-3.58,4.08-7.25,5.93-10.99,1.44-2.88,2.71-5.75,3.2-8.93,1.39-8.93-.07-17.91-.36-26.84-.19-4.65.14,4.6,0,0"/><path d="m941.75,258.17c-2.45-6.12-3.26-12.42-6.47-18.38-3.78-6.97-8.82-13.17-15.66-17.71-27.53-15.72-63.84-21.66-92.42-1.72l-9.82,8.87-.67,1.02c-9.41,13.46-14.1,31.34-15.17,39.31-.86,6.46.34,13.51,1.2,19.93,1.32,9.67,5.22,14.66,7.89,21.69,3.24,5.17,6.67,10.2,10.66,14.9,4.71,5.5,9.66,8.45,16.33,11.55,4.57,2.11,9.29,4.43,14.18,5.84,2.72.81,6.68,2.57,9.57,2.41,13.11,1.66,26.15,2.87,38.78-1.59,9.15-3.24,16.58-7.58,22.46-15.01,4.62-5.79,9.18-11.96,12.55-18.49,3.51-6.78,4.58-14.17,5.84-21.49,1.01-5.85,1.91-11.38,1.9-17.33.01-2.82.15-5.66,0-8.48-.09-1.83-1.04-3.56-1.13-5.3-.2-.5.03.53,0,0"/><path d="m670.94,369.81c-11.82-21.01-45.83-80.86-45.83-80.86,0,0-10.03-15.2-10.5-16.05-3.37-4.46-5.9-9.3-9.45-13.67,7.81-7.61,9.88-9.88,9.88-9.88l13.81-14.12c5.13-5.09,10.64-10.1,16.39-14.45.24-.23,5.1-4.93,5.1-4.93,0,0,8.08-6.57,11.29-9.87l-29.32-31.59c-2.54,2.38-11.3,9.86-11.3,9.86,0,0-4.92,4.75-5.53,5.32l-13.4,11.59s-25.5,27.17-36.54,38.26c.02-2.27-1.18-25.97-1.18-25.97-.9-21.47-.62-44.12-1.51-56.46l-44.8-.41c-1.73,18.45,1.66,97.76,1.65,98.95,0,0-.09,85.84-.62,143.93l49.73.73c.32-35-2.21-66.77-1.89-101.78l7.6-8.17c2,2.99,6.43,8.97,6.43,8.97.35.37,3.18,5.38,4.27,6.8l5.33,9.29,29.15,51.53c5.09,9.13,18.24,31.97,18.46,32.22l37.53-20.88c-.37-1.01-.84-1.5-1.2-2.3,0,0-2.34-3.92-3.56-6.07"/></g>
  <!-- sub-wordmark -->
  <text x="600" y="430" text-anchor="middle" font-family="Arial, Helvetica, sans-serif" font-weight="700" font-size="40" letter-spacing="14" fill="#FFCC33">PEDIA</text>
  <!-- tagline -->
  <text x="600" y="492" text-anchor="middle" font-family="Arial, Helvetica, sans-serif" font-weight="700" font-size="34" fill="#ffffff">De vrijwilligersgids van Gekkoo</text>
  <text x="600" y="536" text-anchor="middle" font-family="Arial, Helvetica, sans-serif" font-weight="400" font-size="25" fill="#aabbdd">Alles wat je moet weten als animator — in klare taal</text>
  <!-- accent: huisstijl-stippen -->
  <g>
    <circle cx="546" cy="586" r="9" fill="#003399" stroke="#5a78c8" stroke-width="2"/>
    <circle cx="573" cy="586" r="9" fill="#FFCC33"/>
    <circle cx="600" cy="586" r="9" fill="#479554"/>
    <circle cx="627" cy="586" r="9" fill="#FF99CC"/>
    <circle cx="654" cy="586" r="9" fill="#FF3333"/>
  </g>
</svg>
